<?xml version="1.0" encoding="utf-8"?>
<!-- Generator: Adobe Illustrator 18.1.1, SVG Export Plug-In . SVG Version: 6.00 Build 0)  -->
<svg version="1.1" xmlns="http://www.w3.org/2000/svg" xmlns:xlink="http://www.w3.org/1999/xlink" x="0px" y="0px"
	 viewBox="0 0 206.8 76" enable-background="new 0 0 206.8 76" xml:space="preserve">
<g id="cloudwhisps">
	<g>
		<path id="lowerwhisp" opacity="9.000000e-02" fill="#FFFFFF" d="M4.7,65c37.5-24.1,79.9-6.7,101.1,4.9C76.5,58.3,33.6,55.6,4.7,65
			z"/>
		<g id="largewhisp" opacity="0.39">
			<path fill="#FFFFFF" d="M41.8,37.6c0.1,0,0.2,0,0.3,0c0,0,0.1,0,0.4-0.3c0.4-0.4,0.8-0.9,1.2-1.6c0.1-0.1,0.1-0.2,0.2-0.3
				c-0.8,0.2-1.5,0.4-2.3,0.6c0,0.7,0.1,1.1,0.1,1.4C41.7,37.5,41.7,37.5,41.8,37.6z"/>
			<path fill="#FFFFFF" d="M51.6,37.6c-0.6,1.4-1.4,2.7-2.3,3.7c-1.2,1.5-2.6,2.6-4.1,3.4c-0.3,0.1-0.6,0.3-0.9,0.4
				c1.9-0.2,3.8-0.3,5.7-0.3L51.6,37.6z"/>
			<path fill="#FFFFFF" d="M170.1,58.3c-23.4,5.8-43.6-2.8-69.5-12.6c-1,0.2-2.1,0.4-3.2,0.4c-1.3,0-2.6-0.2-3.7-0.5
				c-1.2-0.4-2.3-1-3.1-1.8c-0.5-0.5-1-1.1-1.4-1.8c-0.3,0.3-0.7,0.6-1,0.9c-1.2,0.9-2.6,1.7-4.1,2.3C82.5,45.7,80.8,46,79,46
				c-1.3,0-2.6-0.2-3.7-0.5c-1.2-0.4-2.3-1-3.1-1.8c-0.9-0.8-1.6-1.9-2-3.1c-0.4-1.2-0.6-2.6-0.6-4.2c0-0.4,0-0.8,0-1.2
				c-2.1-0.5-4.2-0.8-6.3-1l-2.4,11.2c4.7,0.6,9.4,1.8,14.2,3.5c35.1,13.1,62.8,18.9,92.7,13.7c23.8-4.1,32.1-19.7,34.5-26
				C200.2,41.7,193.1,52.6,170.1,58.3z"/>
			<path fill="#FFFFFF" d="M36.5,45.4c-1.2-0.4-2.3-0.9-3.2-1.7c-0.9-0.8-1.6-1.8-2.1-3.1c-0.1-0.3-0.2-0.6-0.3-0.8
				c-2.3,1-4.4,2.1-6.4,3.2l-0.6,2.7H20c-1.4,0.9-2.8,1.9-4,2.8c-6.1,4.5-9.5,8.3-9.5,8.3c0,0.1,3.5-2,9.5-4.5
				c5.6-2.4,13.4-5,22.4-6.5C37.7,45.7,37.1,45.6,36.5,45.4z"/>
		</g>
		<path id="upperwhisp" opacity="7.000000e-02" fill="#FFFFFF" d="M153.4,50.4c-9.7,0.9-19.8-1.7-26.9-4.1c0,0,0,0,0,0
			c-1.9,0-3.4-0.6-4.6-1.6c0,0-0.1-0.1-0.1-0.1c-0.4-0.2-0.7-0.3-1.1-0.5c-0.2,0.2-0.4,0.3-0.6,0.5c0,0-0.1,0-0.1,0
			c6.1,3.8,20.1,11.2,32.9,10.6c17-0.7,23.5-12.7,23.5-12.7S171.1,48.8,153.4,50.4z"/>
	</g>
</g>
<g id="text">
	<g>
		<path fill="#FFFFFF" d="M15.6,43.5l6.9-32c-0.9,0-1.8,0.2-2.5,0.5s-1.4,0.9-2,1.6c-0.5,0.7-1,1.8-1.3,3c-0.3,1.3-0.5,2.9-0.5,4.8
			c0,0.6,0,1.1,0.1,1.5c0.1,0.4,0.1,0.7,0.2,0.9c0.1,0.2,0.2,0.4,0.2,0.5c0.1,0.1,0.1,0.2,0.1,0.3c-0.8,0-1.6-0.1-2.2-0.2
			s-1.2-0.4-1.6-0.8c-0.4-0.4-0.8-0.8-1-1.4s-0.3-1.3-0.3-2.2c0-1.6,0.3-3.1,0.9-4.6c0.6-1.5,1.5-2.8,2.8-4s3-2.1,5.1-2.8
			c2.1-0.7,4.6-1.1,7.6-1.1c0.5,0,1,0,1.6,0.1c0.6,0.1,1.2,0.1,1.9,0.2C32.4,8,33.1,8,33.8,8.1c0.7,0.1,1.5,0.1,2.3,0.1
			c0.7,0,1.5,0,2.2-0.1C39,8,39.7,7.8,40.4,7.6c-0.2,0.5-0.3,1-0.5,1.6c-0.1,0.6-0.4,1.1-0.7,1.7c-0.3,0.5-0.7,1-1.2,1.5
			s-1.3,0.8-2.2,0.9c-1.1,0-2.3-0.1-3.4-0.3c-1.1-0.2-2.2-0.4-3.3-0.7l-2,9.5h7l-0.8,3.6h-7l-3.9,18H15.6z"/>
		<path fill="#FFFFFF" d="M60.3,25.3c-0.9,1-2.1,1.8-3.6,2.5c-1.5,0.7-3.1,1.2-4.9,1.5c-0.2,2.2-0.6,4.2-1.3,6
			c-0.7,1.8-1.5,3.3-2.5,4.5c-1,1.2-2.2,2.2-3.5,2.9c-1.3,0.7-2.7,1-4.2,1c-1.1,0-2.1-0.1-3.1-0.4c-0.9-0.3-1.8-0.7-2.4-1.3
			c-0.7-0.6-1.2-1.4-1.6-2.3c-0.4-1-0.6-2.1-0.6-3.5c0-0.9,0.1-2,0.3-3.2c0.2-1.2,0.5-2.4,0.9-3.7s1-2.5,1.7-3.7
			c0.7-1.2,1.5-2.3,2.5-3.2c1-1,2.1-1.7,3.4-2.3c1.3-0.6,2.7-0.9,4.4-0.9c4.1,0,6.1,2.5,6.1,7.6v0c0.1,0,0.2,0,0.2,0
			c0.1,0,0.2,0,0.3,0c0.6,0,1.2-0.1,1.8-0.2c0.6-0.2,1.3-0.4,2-0.6c0.7-0.3,1.3-0.6,1.9-0.9c0.6-0.4,1.2-0.7,1.7-1.1L60.3,25.3z
			 M47.8,29.4c-0.5-0.1-0.8-0.4-1-0.7s-0.3-0.8-0.3-1.3c0-0.7,0.1-1.2,0.4-1.6c0.3-0.4,0.6-0.7,1.1-0.9c0-0.5-0.1-0.9-0.2-1.3
			c-0.1-0.4-0.2-0.6-0.3-0.9c-0.1-0.2-0.3-0.4-0.5-0.5c-0.2-0.1-0.5-0.1-0.8-0.1c-0.6,0-1.1,0.2-1.7,0.7c-0.5,0.4-1,1-1.5,1.8
			c-0.5,0.7-0.9,1.6-1.3,2.5c-0.4,0.9-0.7,1.9-1,2.9c-0.3,1-0.5,2-0.7,3c-0.2,1-0.2,1.9-0.2,2.7s0,1.4,0.1,1.9
			c0.1,0.5,0.2,0.9,0.4,1.2c0.2,0.3,0.4,0.5,0.8,0.6c0.3,0.1,0.7,0.2,1.1,0.2c0.6,0,1.2-0.3,1.7-0.8c0.6-0.5,1.1-1.2,1.6-2.1
			c0.5-0.9,0.9-1.9,1.3-3.2C47.3,32.1,47.6,30.8,47.8,29.4z"/>
		<path fill="#FFFFFF" d="M52.5,43.5l5.1-23.9h6.9l-0.6,3c0.4-0.4,0.8-0.7,1.3-1.1c0.4-0.4,0.9-0.7,1.4-0.9c0.5-0.3,1-0.5,1.5-0.7
			c0.5-0.2,1.1-0.3,1.6-0.3c0.5,0,1,0.1,1.4,0.3c0.4,0.2,0.8,0.5,1,0.8c0.3,0.3,0.5,0.7,0.6,1.1c0.1,0.4,0.2,0.9,0.2,1.4
			c0,0.4-0.1,0.8-0.2,1.3c-0.1,0.4-0.4,0.8-0.6,1.1c-0.3,0.3-0.7,0.6-1.1,0.8c-0.4,0.2-0.9,0.3-1.5,0.3c-0.5,0-0.8-0.1-1-0.2
			c-0.2-0.2-0.4-0.4-0.5-0.6c-0.1-0.2-0.2-0.5-0.3-0.8c-0.1-0.3-0.1-0.5-0.2-0.8c-0.1-0.2-0.1-0.4-0.2-0.6c-0.1-0.2-0.3-0.2-0.5-0.2
			c-0.7,0-1.3,0.2-1.8,0.5c-0.5,0.3-1,0.8-1.6,1.3l-3.8,18.2H52.5z"/>
		<path fill="#FFFFFF" d="M92.4,34.9c-0.7,1.1-1.4,2.2-2.3,3.3c-0.9,1.1-1.8,2-2.9,2.8c-1.1,0.8-2.3,1.5-3.6,2s-2.8,0.8-4.3,0.8
			c-1.1,0-2.2-0.1-3.1-0.4c-0.9-0.3-1.7-0.7-2.4-1.3s-1.2-1.4-1.5-2.3c-0.4-1-0.5-2.1-0.5-3.5c0-0.9,0.1-2,0.3-3.2
			c0.2-1.2,0.5-2.4,0.9-3.7c0.4-1.3,0.9-2.5,1.6-3.7c0.7-1.2,1.5-2.3,2.4-3.3c1-1,2.1-1.7,3.3-2.3c1.3-0.6,2.7-0.9,4.4-0.9
			c1.1,0,2,0.1,2.6,0.4c0.7,0.3,1.2,0.6,1.6,1s0.7,0.9,0.8,1.5c0.1,0.6,0.2,1.1,0.2,1.7c0,1.4-0.3,2.7-0.9,3.9s-1.4,2.2-2.4,3.1
			c-1,0.9-2.2,1.6-3.5,2.2c-1.3,0.5-2.7,0.9-4.1,1c0,0.4-0.1,0.7-0.1,1c0,0.3,0,0.6,0,0.9c0,0.8,0.1,1.5,0.2,2
			c0.1,0.5,0.4,0.9,0.7,1.2c0.3,0.3,0.6,0.5,1.1,0.6c0.4,0.1,0.9,0.2,1.5,0.2c1,0,1.8-0.1,2.6-0.4c0.8-0.2,1.5-0.6,2.2-1
			c0.7-0.4,1.3-1,1.9-1.5c0.6-0.6,1.2-1.2,1.8-1.9H92.4z M79.3,31.5c0.9-0.1,1.8-0.3,2.6-0.8c0.8-0.5,1.6-1,2.2-1.8
			c0.6-0.7,1.1-1.6,1.5-2.5c0.4-0.9,0.6-1.9,0.6-2.9c0-0.6-0.1-1.1-0.3-1.4c-0.2-0.4-0.5-0.5-0.9-0.5c-0.6,0-1.2,0.3-1.8,0.9
			s-1.1,1.3-1.6,2.3c-0.5,0.9-1,2-1.4,3.2C79.9,29.2,79.6,30.3,79.3,31.5z"/>
		<path fill="#FFFFFF" d="M110.8,34.9c-0.7,1.1-1.4,2.2-2.3,3.3c-0.9,1.1-1.8,2-2.9,2.8c-1.1,0.8-2.3,1.5-3.6,2s-2.8,0.8-4.3,0.8
			c-1.1,0-2.2-0.1-3.1-0.4c-0.9-0.3-1.7-0.7-2.4-1.3s-1.2-1.4-1.5-2.3c-0.4-1-0.5-2.1-0.5-3.5c0-0.9,0.1-2,0.3-3.2
			c0.2-1.2,0.5-2.4,0.9-3.7c0.4-1.3,1-2.5,1.6-3.7s1.5-2.3,2.4-3.2c1-1,2.1-1.7,3.3-2.3c1.3-0.6,2.7-0.9,4.3-0.9
			c1.1,0,1.9,0.1,2.6,0.4c0.7,0.3,1.2,0.6,1.6,1c0.4,0.4,0.7,0.9,0.8,1.4c0.2,0.5,0.2,1.1,0.2,1.6c0,0.6-0.1,1.1-0.2,1.5
			s-0.3,0.8-0.5,1.1c-0.2,0.3-0.5,0.5-0.8,0.7c-0.3,0.1-0.6,0.2-1,0.2c-0.5,0-1.1-0.2-1.7-0.6c0.4-1,0.6-2,0.6-2.8
			c0-0.6-0.1-1.1-0.3-1.4c-0.2-0.4-0.6-0.5-1-0.5c-0.5,0-1,0.2-1.5,0.7c-0.5,0.5-1,1.1-1.4,1.8c-0.5,0.7-0.9,1.6-1.3,2.6s-0.7,2-1,3
			s-0.5,2.1-0.7,3.1c-0.2,1-0.2,2-0.2,2.9c0,0.8,0.1,1.5,0.2,2c0.1,0.5,0.4,0.9,0.7,1.2c0.3,0.3,0.6,0.5,1.1,0.6
			c0.4,0.1,0.9,0.2,1.5,0.2c1,0,1.8-0.1,2.6-0.4c0.8-0.2,1.5-0.6,2.2-1c0.7-0.4,1.3-1,1.9-1.5c0.6-0.6,1.2-1.2,1.8-1.9H110.8z"/>
		<path fill="#FFFFFF" d="M136.3,34.9c-0.5,1.3-0.9,2.4-1.5,3.4c-0.5,1-1.1,1.8-1.6,2.4c-0.6,0.7-1.1,1.2-1.7,1.6
			c-0.6,0.4-1.2,0.7-1.7,0.9c-0.6,0.2-1.1,0.4-1.6,0.4c-0.5,0.1-1,0.1-1.4,0.1c-1.4,0-2.4-0.4-3.2-1.1c-0.8-0.7-1.3-1.8-1.5-3.3
			c-0.4,0.5-0.8,1.1-1.3,1.6c-0.5,0.5-1,1-1.6,1.4c-0.6,0.4-1.2,0.7-1.9,1c-0.7,0.3-1.5,0.4-2.4,0.4c-0.8,0-1.6-0.1-2.4-0.4
			c-0.8-0.3-1.4-0.7-2-1.3c-0.6-0.6-1.1-1.4-1.4-2.4s-0.5-2.2-0.5-3.6c0-1.1,0.1-2.3,0.3-3.5c0.2-1.2,0.6-2.5,1-3.7s1-2.4,1.7-3.6
			c0.7-1.1,1.5-2.2,2.4-3c0.9-0.9,1.9-1.6,3.1-2.1c1.2-0.5,2.4-0.8,3.8-0.8c1.4,0,2.3,0.2,3,0.7c0.6,0.5,0.9,1,0.9,1.7v0.4l0.5-2.5
			h6.9l-3.4,16.3c-0.1,0.3-0.1,0.5-0.2,0.8c0,0.3,0,0.5,0,0.8c0,1.4,0.7,2.1,2,2.1c0.5,0,0.9-0.1,1.3-0.4c0.4-0.2,0.8-0.6,1.1-1
			s0.6-0.9,0.9-1.4c0.2-0.6,0.5-1.1,0.6-1.7H136.3z M124.3,24.1c0-0.1,0-0.3-0.1-0.5s-0.2-0.4-0.3-0.6c-0.1-0.2-0.3-0.4-0.6-0.5
			c-0.2-0.1-0.6-0.2-1-0.2c-0.7,0-1.3,0.2-1.9,0.7c-0.6,0.4-1.2,1-1.6,1.7c-0.5,0.7-0.9,1.5-1.3,2.5c-0.4,0.9-0.7,1.9-1,2.8
			c-0.3,1-0.5,1.9-0.6,2.9c-0.1,0.9-0.2,1.8-0.2,2.5c0,0.9,0.1,1.6,0.3,2.1c0.2,0.5,0.4,0.9,0.6,1.1c0.2,0.2,0.5,0.4,0.8,0.4
			c0.3,0,0.5,0.1,0.7,0.1c0.4,0,0.7-0.1,1.1-0.3s0.8-0.4,1.1-0.8s0.7-0.8,1-1.3c0.3-0.5,0.5-1.1,0.7-1.8L124.3,24.1z"/>
		<path fill="#FFFFFF" d="M154.6,34.9c-1.2,1.4-2.5,2.6-3.8,3.6c-1.3,0.9-2.4,1.7-3.6,2.4c-0.5,0.5-1.1,1-1.7,1.3
			c-0.6,0.4-1.3,0.7-1.9,0.9c-0.7,0.2-1.3,0.4-2,0.5s-1.3,0.2-1.9,0.2c-1.2,0-2.2-0.2-3.1-0.5c-0.9-0.4-1.6-0.8-2.2-1.4
			c-0.6-0.6-1-1.2-1.3-2c-0.3-0.7-0.4-1.5-0.4-2.2c0-0.6,0.1-1.1,0.2-1.6c0.1-0.5,0.3-0.9,0.6-1.3c0.2-0.4,0.5-0.7,0.8-1
			c0.3-0.3,0.6-0.5,0.9-0.6c1.3-2.4,2.5-4.8,3.4-7.1s1.8-4.7,2.5-7.1l7.1-0.9c0.1,2.1,0.2,3.9,0.3,5.4c0.1,1.5,0.2,2.8,0.2,4
			c0.1,1.1,0.1,2.1,0.2,2.8s0.1,1.5,0.2,2.1c0.1,0.6,0.1,1.1,0.1,1.6c0,0.5,0,1,0,1.5c0,0.4,0,0.7,0,1c0,0.3-0.1,0.6-0.2,0.8
			c0.7-0.4,1.3-0.8,1.9-1.2c0.6-0.4,1.1-0.8,1.5-1.2H154.6z M135.3,36.7c0,1.1,0.2,2,0.7,2.5s1.2,0.8,2.3,0.8c0.5,0,1-0.1,1.5-0.2
			c0.5-0.1,0.9-0.4,1.3-0.7c0.4-0.4,0.7-0.8,0.9-1.4s0.4-1.3,0.4-2.1c0-0.4,0-0.8,0-1.2c0-0.4-0.1-0.8-0.1-1.2
			c0-0.4-0.1-0.9-0.1-1.4c-0.1-0.5-0.1-1.1-0.2-1.8c-0.1-0.7-0.1-1.5-0.2-2.4c-0.1-0.9-0.2-2-0.3-3.2c-0.5,1.6-1.1,3.1-1.7,4.5
			c-0.7,1.5-1.4,3-2.2,4.5c0.3,0.2,0.6,0.4,0.8,0.7c0.2,0.3,0.3,0.6,0.3,1c0,0.3,0,0.6-0.1,0.9c-0.1,0.3-0.2,0.5-0.4,0.8
			c-0.2,0.2-0.4,0.4-0.7,0.5c-0.3,0.1-0.5,0.2-0.9,0.2c-0.3,0-0.5,0-0.7-0.1C135.6,37.1,135.4,36.9,135.3,36.7z"/>
		<path fill="#FFFFFF" d="M155.7,21.5h-1.6l0.4-1.9h1.6l1.5-6.6l7.1-1c-0.1,0.3-0.2,0.7-0.2,1c-0.1,0.4-0.2,0.8-0.2,1.2
			c-0.2,0.7-0.4,1.5-0.5,2.4c-0.2,0.9-0.4,1.9-0.6,3h2.9l-0.4,1.9h-2.9l-3.1,14.4c-0.1,0.3-0.1,0.6-0.2,0.9s-0.1,0.5-0.1,0.8
			c0,0.5,0.1,0.9,0.3,1.2c0.2,0.3,0.7,0.5,1.3,0.5c0.2,0,0.4,0,0.6,0c0.2,0,0.5-0.1,0.7-0.1c-0.4,1-0.7,1.9-1.2,2.5
			s-0.8,1.1-1.3,1.4c-0.4,0.3-0.9,0.5-1.3,0.6c-0.4,0.1-0.9,0.2-1.3,0.2c-0.9,0-1.6-0.1-2.2-0.4c-0.6-0.3-1.1-0.7-1.5-1.1
			c-0.4-0.5-0.7-1.1-0.8-1.7s-0.3-1.4-0.3-2.1c0-0.8,0.1-1.7,0.3-2.5L155.7,21.5z"/>
	</g>
</g>
</svg>
