<?xml version="1.0" encoding="utf-8"?>
<!-- Generator: Adobe Illustrator 18.1.1, SVG Export Plug-In . SVG Version: 6.00 Build 0)  -->
<svg version="1.1" xmlns="http://www.w3.org/2000/svg" xmlns:xlink="http://www.w3.org/1999/xlink" x="0px" y="0px"
	 viewBox="0 0 612 606" enable-background="new 0 0 612 606" xml:space="preserve">
<g id="Layer_1">
	<g id="Layer_2">
	</g>
</g>
<g id="Layer_2_1_">
	<path d="M562.8,441c-4.4-3.7-8.8-7.4-13.2-11.1c-3.7-3.1-4.5-7.1-2.4-11.5c0.7-1.4,1.3-2.7,2-4.1l0,0c0-0.1,0.1-0.1,0.1-0.2
		c0.6-1.3,1.2-2.5,1.7-3.8c0.8-1.7,1.8-3.1,2.8-4.1c8.2-15.4,11.3-30.3,12.4-38.5c-0.1-1,0-2.2,0.2-3.3c0.1-0.5,0.2-0.9,0.3-1.4
		c0.1-1.2,0.1-1.9,0.1-1.9l0.3,0.2c0.5-2.1,0.9-4.3,1.4-6.4c1-4.7,4.1-7.2,9-7.5c5.9-0.3,11.7-0.6,17.6-1c4.5-0.3,7.6-2.8,8.5-7.3
		c0.6-3,0.9-6.1,1-9.2c0.1-4.3-2.5-7.5-6.7-8.7c-5.8-1.7-11.7-3.2-17.5-4.8c-4.2-1.2-6.6-4.5-6.7-8.8c0-1.3,0-2.7,0-4l-0.8,0
		c0.3-1.8,0.5-3.6,0.8-5.3c0-0.3,0-0.6,0-0.8c0-1,0.1-1.9,0.4-2.8c1.5-17.7-1.7-32.8-3.9-40.8c-0.8-1.2-1.5-2.6-1.9-4.3
		c-0.6-2.9-1.3-5.8-1.9-8.7c-1.2-5.3,0.5-8.8,5.3-11.3c5.1-2.7,10.2-5.3,15.3-8c3.9-2.1,5.6-6,4.5-10.3c-0.7-2.8-1.6-5.5-2.7-8.2
		c-1.6-4-5.5-6.2-9.8-5.5c-5.7,0.9-11.3,1.9-17,2.9c-5.3,0.9-8.9-0.9-11.1-5.7c0-0.1-0.1-0.1-0.1-0.2l-1.4,0.7
		c-5.7-23.7-18.7-40.7-24-47c-1.3-0.7-2.5-1.8-3.6-3.3c-1.8-2.4-3.6-4.7-5.4-7.1c-3.2-4.1-3.2-8,0-12.2c3.6-4.6,7.1-9.1,10.6-13.7
		c2.7-3.6,2.6-8.1-0.3-11.5c-1.7-2.1-3.6-4.1-5.5-5.9c-3.5-3.3-7.9-3.6-12-0.9c-4.8,3.3-9.6,6.6-14.5,9.9c-3.9,2.6-7.9,2.3-11.5-0.7
		c-1.4-1.1-2.7-2.3-4.1-3.4l-0.4,0.5c-1.2-1.3-2.4-2.6-3.6-3.9c-0.2-0.2-0.4-0.4-0.6-0.6c-19.7-19.9-42.2-27.1-42.2-27.1l0.4-0.4
		c-2-1.1-4-2.1-6-3.2c-3.8-2.1-5.4-5.7-4.5-10c1.3-5.8,2.6-11.6,3.9-17.4c0.9-4.5-0.9-8.4-5-10.4c-2.3-1.1-4.8-2-7.2-2.9
		c-4.9-1.8-9.1-0.3-11.8,4.1c-3,4.9-5.9,9.9-8.9,14.8c-2.5,4-6.2,5.5-10.7,4.3c-1.6-0.4-3.2-0.8-4.8-1.2l-0.1,0.6
		c-1.6-0.7-3.2-1.4-4.7-2c-0.1,0-0.1,0-0.2,0c-0.6-0.2-1.2-0.4-1.7-0.7c-17.1-6.3-32.9-7.3-41.6-7.2c-1,0.3-2.1,0.4-3.2,0.4
		c-0.9,0-1.9-0.1-2.8-0.1c-0.7,0.1-1,0.1-1,0.1l0.1-0.1c-2.1-0.1-4.2-0.2-6.3-0.3c-4.7-0.2-7.8-2.8-8.8-7.4
		c-1.3-5.7-2.4-11.5-3.7-17.2c-1.1-4.8-4.5-7.5-9.4-7.5c-2.6,0-5.3,0.2-8,0.5c-4.6,0.6-7.6,3.7-8.1,8.2c-0.6,5.7-1.2,11.5-1.8,17.2
		c-0.5,5-3.4,8-8.5,8.8c-1.8,0.3-3.7,0.6-5.5,0.9l0.2,0.8c-21.2,0.3-38.7,7-47.7,11.3c-0.7,0.5-1.5,1-2.5,1.4
		c-0.5,0.2-0.9,0.4-1.4,0.6c-1.7,0.9-2.6,1.4-2.6,1.4l0-0.4c-1.6,0.6-3.2,1.3-4.9,1.9c-4.9,2-8.6,1-11.8-3.2
		c-3.4-4.5-6.8-9.1-10.2-13.6c-3.1-4-7.3-5.1-11.9-2.9c-2.1,1-4.2,2.1-6.3,3.3c-4.5,2.6-6.1,6.8-4.4,11.7c1.8,5.4,3.8,10.8,5.6,16.3
		c1.5,4.4,0.2,8.2-3.7,10.9c-2.4,1.7-5,3.3-7.4,5l0.9,1.2c-16.8,7.9-28.9,19.1-36,26.9c-0.5,1.2-1.2,2.4-2.3,3.6
		c-1.5,1.5-3,3.1-4.4,4.6c-0.3,0.5-0.5,0.7-0.5,0.7l-0.1-0.1c-0.5,0.6-1.1,1.1-1.6,1.7c-3.5,3.7-7.4,4.3-11.9,1.9
		c-5.1-2.7-10.1-5.5-15.2-8.2c-4.3-2.3-8.7-1.4-11.8,2.3c-1.5,1.8-2.9,3.8-4.3,5.7c-3,4.2-2.8,8.6,0.8,12.4
		c3.7,3.9,7.5,7.7,11.2,11.6c4.3,4.5,4.7,8,1.5,13.3c-0.8,1.3-1.6,2.6-2.4,3.9l0,0l0,0c-0.6,1-1.2,2-1.8,3c-1,1.7-2.1,2.9-3.3,3.8
		c-9.4,13.5-14.2,27.1-16.6,35.5c0.2,1.4,0,2.9-0.5,4.5c-0.5,1.4-1,2.7-1.4,4.1l0,0l0,0c-0.5,1.5-1,2.9-1.5,4.4
		c-1.9,5.8-5.1,7.9-11.2,7.4c-5.5-0.4-10.9-0.8-16.4-1c-4.9-0.2-8.4,2.5-9.6,7.2c-0.5,2.1-0.9,4.3-1.4,6.4c-1.2,5.4,0.9,9.4,6,11.4
		c5.1,2,10.3,4,15.5,6c5.1,2,7.1,5.6,6.4,11c-0.4,2.7-0.7,5.3-0.9,8c-0.1,1.7-0.5,3.1-1,4.3c-3.1,17.6-1.3,33.3,0.5,42.5
		c0.2,0.5,0.3,1.1,0.4,1.7c0.9,4.3,1.7,6.8,1.7,6.8l-1-0.2c0.1,0.8,0.2,1.7,0.3,2.5c0.1,0.6,0.1,1.3,0.1,1.8l1-0.2
		c-0.1,18.1,4.5,33.6,8.4,43.4c0.5,0.7,0.9,1.5,1.2,2.4c0.2,0.6,0.4,1.2,0.6,1.8c2,4.4,3.4,6.9,3.4,6.9l-1.1,0
		c0,0.1,0.1,0.2,0.1,0.3c1.6,4.7,0.3,8.5-3.9,11.3c-4.8,3.2-9.6,6.4-14.4,9.6c-3.9,2.6-5.2,6.8-3.5,11.2c1,2.5,2.1,4.9,3.4,7.3
		c2.2,4.1,6.3,5.8,10.8,4.6c5.6-1.6,11.3-3.2,16.9-4.8c4.6-1.3,8.4,0.3,10.9,4.4c0.9,1.5,1.9,3.1,2.8,4.7l0.2-0.1
		c0.2,0.5,0.4,0.9,0.6,1.4c0.3,0.6,0.7,1.1,1,1.7c0.9,1.5,1.5,2.9,1.8,4.2c8,15.3,18.3,26.3,24.7,32.2c1,0.5,1.9,1.2,2.7,2.1
		c0.5,0.5,1.1,1.1,1.6,1.7c1.1,0.8,1.7,1.3,1.7,1.3l-0.3,0.1c1.1,1.2,2.3,2.4,3.4,3.6c3.9,4,4.3,7.8,1.3,12.6
		c-2.9,4.7-5.8,9.4-8.7,14.2c-2.5,4.1-1.9,8.6,1.6,11.9c1.8,1.7,3.7,3.3,5.7,4.8c3.9,3.1,8.3,3,12.2-0.2c4.5-3.7,8.9-7.6,13.4-11.4
		c3.6-2.9,7.5-3.1,11.3-0.6c1.5,0.9,2.9,1.9,4.3,2.9l0.2-0.3c0.7,0.6,1.4,1.3,2.1,1.9c0.5,0.4,1.1,0.7,1.6,1.1
		c1.1,0.8,2,1.6,2.7,2.5c14,11,28.4,16.7,36.5,19.3c1,0.1,2.1,0.3,3.2,0.8c0.7,0.2,1.3,0.5,2,0.8c0.9,0.2,1.4,0.3,1.4,0.3l-0.1,0.2
		c2.2,0.8,4.3,1.7,6.5,2.6c4,1.6,6.1,5.4,5.6,9.8c-0.7,5.8-1.4,11.5-2.1,17.2c-0.6,4.6,1.7,8.4,6.1,10c2.6,0.9,5.3,1.7,8,2.2
		c4.9,1,8.6-1,10.7-5.5c2.4-5.2,4.8-10.5,7.2-15.7c2.1-4.3,5.8-6.2,10.5-5.4c1.9,0.3,3.8,0.6,5.8,1l0.1-0.7
		c20.5,6.5,39.5,5.4,49.2,4.2c0.8-0.2,1.7-0.4,2.6-0.4c0.2,0,0.5,0,0.7,0c2.3-0.4,3.5-0.7,3.5-0.7l-0.1,0.5c1.6-0.1,3.2-0.2,4.9-0.3
		c5.1-0.3,8.6,1.9,10.2,6.8c1.8,5.4,3.5,10.7,5.3,16.1c1.7,5,5.7,7.4,10.9,6.7c2.1-0.2,4.1-0.6,6.2-1c5.4-0.9,8.4-4.3,8.4-9.8
		s-0.1-10.9-0.1-16.4c-0.1-5.5,2.2-8.5,7.4-10c1.9-0.6,3.7-1.1,5.5-1.6l-0.3-0.8c30.8-3.9,52.2-20.6,52.2-20.6l0.1,0.8
		c1.5-0.8,3-1.6,4.4-2.3c4.6-2.4,8.5-1.8,12.1,2c3.9,4.1,7.8,8.3,11.7,12.4c3.5,3.6,7.9,4.2,12.2,1.6c2-1.2,3.8-2.5,5.7-3.8
		c4.5-3.1,5.6-7.3,3.3-12.2c-2.4-5.2-4.9-10.4-7.3-15.6c-2-4.3-1.1-8.1,2.5-11.2c1.3-1.1,2.6-2.1,3.8-3.2l-0.7-0.7
		c17.7-10.5,29.4-24.6,35.2-32.9c0.3-1.5,1-3,2.1-4.4c1.9-2.4,3.7-4.8,5.6-7.3c3.2-4.2,6.9-5.3,11.8-3.3c5.3,2.2,10.6,4.4,16,6.5
		c4.5,1.8,8.7,0.5,11.4-3.6c1.4-2.1,2.7-4.2,3.9-6.4C567.5,448.6,566.7,444.3,562.8,441z M336.1,116.4c0.1-11.6,6.4-20.2,16.2-22.7
		c1.9-0.4,3.8-0.5,6.4-0.9c3.5,0.8,7.6,1.7,11.7,3.1c33.3,10.3,62.3,27.8,87.5,51.7c12.3,11.6,9.1,28.2-4.1,35.9
		c-18,10.5-36,20.8-54,31.1c-4.7,2.7-9.8,2.2-13.9-1.3c-12.3-10.7-26.2-18.7-41.6-24c-5.1-1.8-8.2-6.2-8.2-11.7
		C336,157.2,335.9,136.8,336.1,116.4z M153.9,148.8c27-26.5,58.7-44.9,95.2-54.9c14.8-4,27.5,6.1,27.7,22.1c0.1,10.2,0,20.5,0,30.7
		c0,10.1,0,20.1,0.1,30.2c0,6.3-2.9,10.5-8.9,12.6c-14.9,5.2-28.4,12.9-40.3,23.2c-4.8,4.1-9.7,4.6-15.1,1.5
		c-17.5-10.1-35.1-20.1-52.6-30.3c-8-4.6-12.8-11.2-12.6-20.8C147.5,157.4,149.9,152.7,153.9,148.8z M130.5,369.4
		c-5.8,3.4-12,4.9-18.6,3.3c-8.2-2-13.2-7.4-15.3-15.4c-4.8-18-7-36.4-7.1-55.1c0.1-18.2,2.3-36.1,6.8-53.7
		c3.8-14.6,17.5-21.1,31.2-14.7c3.4,1.6,6.7,3.7,10.1,5.6c14.9,8.6,29.8,17.1,44.7,25.7c5.7,3.3,7.9,7.7,6.7,14.2
		c-2.9,15.3-3,30.6,0,45.9c1.2,6.5-0.9,11-6.6,14.3C165.1,349.5,147.8,359.4,130.5,369.4z M276.7,488.5
		c-0.1,11.3-6.5,20.4-16.4,22.5c-3.7,0.8-8,0.7-11.7-0.3c-36.2-9.9-67.7-28.1-94.5-54.4c-9.8-9.7-9-23.9,1.8-32.6
		c1.6-1.2,3.3-2.3,5-3.3c17-9.8,34-19.6,51.1-29.4c6.1-3.5,10.7-3.1,16.1,1.5c11.7,10,24.8,17.6,39.3,22.6c6.5,2.3,9.4,6.3,9.4,13.2
		c0,10,0,20.1,0,30.1C276.8,468.5,276.9,478.5,276.7,488.5z M306.4,381.5c-43.9,0-79.3-35.5-79.2-79.3c0.1-43.6,35.7-78.9,79.4-78.8
		c43.7,0.1,79.2,35.6,79.1,79.1C385.6,346.1,350.1,381.5,306.4,381.5z M465.5,443.3c-0.5,4.9-2.8,9.1-6.3,12.5
		c-27.2,26.7-59,45.2-95.8,55.1c-13.2,3.5-25.3-5-26.9-18.6c-0.3-2-0.4-4.1-0.4-6.2c0-9.3,0-18.7,0-28c0-9.9,0-19.9,0.1-29.9
		c0-6.8,2.9-10.9,9.2-13.1c14.8-5.1,28.1-12.8,40-23.1c4.7-4,9.7-4.5,15.1-1.4c17.5,10.1,35,20.1,52.4,30.2
		C461.5,425.8,466.4,433,465.5,443.3z M516.5,356.3c-3.8,15.1-18.5,21.5-32.5,14c-7.5-4-14.7-8.4-22-12.6c-10.5-6-21-12.1-31.5-18.1
		c-6-3.5-7.9-8-6.6-14.8c2.8-14.9,2.8-29.8,0-44.7c-1.3-7.1,0.5-11.4,6.7-15c17.3-10,34.6-19.9,51.9-29.9c5.5-3.2,11.3-4.7,17.5-3.4
		c8.5,1.8,13.9,7.1,16.1,15.4c4.9,18.2,7.3,36.6,7.2,57.1C523.4,320.8,521,338.7,516.5,356.3z"/>
</g>
</svg>
