<?xml version="1.0" encoding="utf-8"?>
<!-- Generator: Adobe Illustrator 18.1.1, SVG Export Plug-In . SVG Version: 6.00 Build 0)  -->
<svg version="1.1" xmlns="http://www.w3.org/2000/svg" xmlns:xlink="http://www.w3.org/1999/xlink" x="0px" y="0px"
	 viewBox="0 0 612 611.6" enable-background="new 0 0 612 611.6" xml:space="preserve">
<g id="Layer_2">
</g>
<g id="Layer_1">
	<path d="M366.1,28.8c0,2.9,0,5.8,0,8.6c0.1,4.6,2.4,7.7,6.8,9c3.2,1,6.5,1.9,9.8,2.7c4.5,1.2,8.2-0.3,10.7-4.3
		c3-4.9,5.9-9.9,8.9-14.8c2.7-4.4,6.9-5.9,11.8-4.1c2.4,0.9,4.9,1.8,7.2,2.9c4.1,2,5.9,5.9,5,10.4c-1.3,5.8-2.6,11.6-3.9,17.4
		c-0.9,4.3,0.7,7.9,4.5,10c3.1,1.7,6.3,3.4,9.5,5c3.8,1.9,7.9,1.2,10.9-1.9c4.1-4.2,8-8.6,12.1-12.8c3.5-3.6,7.9-4.2,12.2-1.6
		c2.1,1.3,4.2,2.7,6.2,4.2c3.9,2.9,5,7.2,2.9,11.6c-2.4,5.1-4.8,10.2-7.2,15.4c-2.3,4.9-1.5,8.7,2.7,12.2c2.4,2,4.7,4,7.1,6
		c3.6,3,7.6,3.3,11.5,0.7c4.9-3.3,9.7-6.6,14.5-9.9c4.1-2.7,8.5-2.4,12,0.9c1.9,1.8,3.8,3.8,5.5,5.9c2.9,3.4,3,7.9,0.3,11.5
		c-3.5,4.6-7,9.1-10.6,13.7c-3.2,4.2-3.2,8.1,0,12.2c1.8,2.4,3.6,4.7,5.4,7.1c3.2,4.2,6.9,5.3,11.8,3.3c5.3-2.1,10.5-4.3,15.7-6.4
		c4.9-1.9,9-0.6,11.9,3.7c1.3,2,2.6,4,3.7,6.1c2.4,4.4,1.6,8.7-2.3,12c-4.3,3.7-8.7,7.3-13,10.9c-4,3.4-4.8,7.2-2.5,12
		c1.3,2.7,2.5,5.4,3.8,8.1c2.2,4.8,5.8,6.6,11.1,5.7c5.7-1,11.3-2,17-2.9c4.3-0.7,8.2,1.5,9.8,5.5c1.1,2.7,2,5.4,2.7,8.2
		c1.1,4.3-0.6,8.2-4.5,10.3c-5.1,2.7-10.2,5.3-15.3,8c-4.8,2.5-6.5,6-5.3,11.3c0.6,2.9,1.3,5.8,1.9,8.7c1.1,5,4.2,7.6,9.4,7.9
		c5.8,0.3,11.5,0.6,17.3,1c4.5,0.3,7.7,2.8,8.6,7.3c0.6,3,0.9,6.1,1,9.2c0.1,4.3-2.5,7.6-6.7,8.7c-5.7,1.6-11.5,3.1-17.2,4.7
		c-4.5,1.3-7,4.5-7,9.1c0,3.4,0,6.8,0,10.1c0.1,4.3,2.5,7.6,6.7,8.8c5.8,1.6,11.7,3.1,17.5,4.8c4.2,1.2,6.8,4.4,6.7,8.7
		c-0.1,3.1-0.4,6.2-1,9.2c-0.9,4.5-4,7-8.5,7.3c-5.9,0.4-11.7,0.7-17.6,1c-4.9,0.3-8,2.8-9,7.5c-0.7,3.2-1.4,6.4-2.1,9.6
		c-1,4.6,0.7,8.2,4.9,10.4c5.1,2.7,10.2,5.3,15.3,8c4.7,2.5,6.3,6.4,4.9,11.5c-0.7,2.3-1.5,4.5-2.3,6.8c-1.8,4.6-5.4,6.8-10.3,6.1
		c-5.6-0.8-11.2-1.8-16.7-2.8c-5.5-1-8.9,0.8-11.3,5.9c-1.2,2.7-2.5,5.4-3.8,8.1c-2.1,4.4-1.3,8.4,2.4,11.5
		c4.4,3.7,8.8,7.4,13.2,11.1c3.9,3.3,4.7,7.6,2.3,12c-1.2,2.2-2.5,4.3-3.9,6.4c-2.7,4.1-6.9,5.4-11.4,3.6c-5.4-2.1-10.7-4.3-16-6.5
		c-4.9-2-8.6-0.9-11.8,3.3c-1.9,2.5-3.7,4.9-5.6,7.3c-3,3.9-3,7.9,0,11.8c3.5,4.6,7.1,9.1,10.6,13.7c3,4,2.9,8.5-0.4,12.2
		c-1.6,1.8-3.2,3.5-4.9,5.2c-3.6,3.5-8,4-12.2,1.2c-4.7-3.2-9.3-6.4-14-9.6c-4.5-3.1-8.4-2.8-12.5,0.7c-2.3,2-4.7,4-7.1,6
		c-3.6,3.1-4.5,6.9-2.5,11.2c2.4,5.2,4.9,10.4,7.3,15.6c2.3,4.9,1.2,9.1-3.3,12.2c-1.9,1.3-3.7,2.6-5.7,3.8c-4.3,2.6-8.7,2-12.2-1.6
		c-3.9-4.1-7.8-8.3-11.7-12.4c-3.6-3.8-7.5-4.4-12.1-2c-2.7,1.4-5.4,2.9-8.2,4.3c-4.3,2.3-6,5.9-5,10.6c1.3,5.7,2.6,11.4,3.8,17.1
		c1,4.5-0.8,8.4-4.9,10.4c-2.6,1.2-5.3,2.3-8,3.2c-4.3,1.4-8.4-0.3-10.8-4.2c-3-4.9-5.9-9.9-8.9-14.8c-2.6-4.3-6.3-5.8-11.1-4.5
		c-3,0.8-5.9,1.6-8.9,2.5c-5.2,1.5-7.5,4.5-7.4,10c0,5.5,0.1,10.9,0.1,16.4c0,5.5-3,8.9-8.4,9.8c-2.1,0.4-4.1,0.8-6.2,1
		c-5.2,0.7-9.2-1.7-10.9-6.7c-1.8-5.4-3.5-10.7-5.3-16.1c-1.6-4.9-5.1-7.1-10.2-6.8c-3,0.2-6,0.3-8.9,0.5c-5,0.3-8.1,2.8-9.2,7.7
		c-1.2,5.4-2.3,10.9-3.5,16.3c-1.2,5.5-4.6,8.2-10.1,8.1c-2.5,0-5-0.2-7.4-0.5c-4.5-0.5-7.6-3.6-8.1-8.1c-0.6-5.7-1.2-11.5-1.8-17.2
		c-0.5-5.1-3.4-8.1-8.5-8.8c-3-0.5-6.1-1-9.1-1.5c-4.7-0.8-8.4,1.1-10.5,5.4c-2.4,5.2-4.8,10.5-7.2,15.7c-2.1,4.5-5.8,6.5-10.7,5.5
		c-2.7-0.5-5.4-1.3-8-2.2c-4.4-1.6-6.7-5.4-6.1-10c0.7-5.7,1.4-11.4,2.1-17.2c0.5-4.4-1.6-8.2-5.6-9.8c-3.2-1.3-6.5-2.6-9.7-3.8
		c-4.4-1.7-8.2-0.6-11.1,3.2c-3.4,4.5-6.8,9.1-10.2,13.6c-3.4,4.4-7.6,5.4-12.6,2.9c-2.1-1.1-4.3-2.1-6.3-3.4c-4-2.5-5.5-6.6-4-11.1
		c1.8-5.5,3.7-10.9,5.6-16.3c1.6-4.8,0.4-8.5-3.8-11.4c-2.7-1.8-5.4-3.7-8.2-5.5c-3.8-2.5-7.7-2.3-11.3,0.6
		c-4.5,3.8-8.9,7.7-13.4,11.4c-3.9,3.2-8.3,3.3-12.2,0.2c-2-1.5-3.9-3.1-5.7-4.8c-3.5-3.3-4.1-7.8-1.6-11.9
		c2.9-4.8,5.8-9.5,8.7-14.2c3-4.8,2.6-8.6-1.3-12.6c-2.1-2.2-4.2-4.5-6.4-6.7c-3.3-3.4-7.2-4-11.4-1.8c-5.1,2.7-10.1,5.5-15.2,8.2
		c-4.7,2.5-9,1.6-12.4-2.6c-1.5-1.9-3-3.7-4.3-5.7c-2.6-3.9-2.3-8.3,0.9-11.7c3.9-4.1,7.9-8.2,11.8-12.3c3.9-4.1,4.3-7.8,1.3-12.6
		c-1.6-2.5-3.1-5.1-4.6-7.6c-2.5-4.1-6.3-5.7-10.9-4.4c-5.6,1.6-11.3,3.2-16.9,4.8c-4.5,1.2-8.6-0.5-10.8-4.6
		c-1.3-2.4-2.4-4.8-3.4-7.3c-1.7-4.4-0.4-8.6,3.5-11.2c4.8-3.2,9.6-6.4,14.4-9.6c4.2-2.8,5.5-6.6,3.9-11.3c-1-3-2-6-3-9
		c-1.6-4.5-5-6.9-9.8-6.6c-5.9,0.3-11.7,0.8-17.6,1.1c-4.9,0.2-8.4-2.5-9.6-7.2c-0.6-2.3-1.1-4.6-1.6-7c-0.9-4.8,1.3-9,5.8-10.8
		C24.4,352,29.7,350,35,348c5.2-2,7.2-5.5,6.5-10.9c-0.4-2.7-0.7-5.3-0.9-8c-0.4-5.6-3.2-8.7-8.8-9.5c-5.4-0.8-10.8-1.7-16.2-2.5
		c-5.2-0.8-8.3-4.2-8.4-9.5c-0.1-2.3-0.1-4.6,0-6.9c0.2-4.9,3.3-8.4,8.1-9.2c5.5-0.9,11-1.7,16.5-2.5c5.6-0.9,8.4-3.9,8.8-9.5
		c0.2-2.7,0.5-5.3,0.9-8c0.7-5.4-1.3-9-6.4-11c-5.2-2-10.4-4-15.5-6c-5.1-2-7.2-6-6-11.4c0.5-2.1,0.9-4.3,1.4-6.4
		c1.2-4.7,4.7-7.4,9.6-7.2c5.5,0.2,10.9,0.6,16.4,1c6.1,0.5,9.3-1.6,11.2-7.4c0.9-2.8,1.9-5.6,2.9-8.5c1.5-4.5,0.2-8.2-3.7-10.9
		c-4.8-3.2-9.6-6.4-14.4-9.6c-4.3-2.9-5.6-7.1-3.5-11.9c1-2.3,2-4.6,3.1-6.7c2.2-4.1,6.3-5.9,10.8-4.6c5.5,1.5,10.9,3.1,16.3,4.6
		c5.4,1.5,8.9,0.1,11.8-4.7c1.4-2.3,2.8-4.6,4.2-6.9c3.2-5.3,2.8-8.8-1.5-13.3c-3.7-3.9-7.5-7.7-11.2-11.6
		c-3.6-3.8-3.8-8.2-0.8-12.4c1.4-1.9,2.8-3.9,4.3-5.7c3.1-3.7,7.5-4.6,11.8-2.3c5.1,2.7,10.1,5.5,15.2,8.2c4.5,2.4,8.4,1.8,11.9-1.9
		c2.2-2.3,4.4-4.6,6.6-6.9c3.3-3.5,3.8-7.5,1.2-11.7c-3-4.9-6-9.8-9-14.7c-2.4-4-2-8.5,1.4-11.7c2-1.9,4.1-3.7,6.4-5.4
		c3.7-2.7,8-2.6,11.5,0.3c4.5,3.8,8.9,7.6,13.4,11.4c3.8,3.2,7.6,3.4,11.7,0.7c2.7-1.8,5.5-3.6,8.2-5.5c3.9-2.7,5.2-6.5,3.7-10.9
		c-1.8-5.5-3.8-10.9-5.6-16.3c-1.7-4.9-0.1-9.1,4.4-11.7c2.1-1.2,4.2-2.3,6.3-3.3c4.6-2.2,8.8-1.1,11.9,2.9
		c3.4,4.5,6.8,9.1,10.2,13.6c3.2,4.2,6.9,5.2,11.8,3.2c3-1.2,5.9-2.3,8.9-3.5c4.4-1.8,6.5-5.5,5.9-10.2c-0.7-5.7-1.4-11.4-2.1-17.2
		c-0.5-4.3,1.7-8.1,5.9-9.7c2.8-1,5.7-1.8,8.6-2.4c4.8-0.9,8.3,1.1,10.4,5.5c2.4,5.1,4.7,10.3,7.1,15.4c2.2,4.7,5.8,6.6,10.9,5.7
		c2.9-0.5,5.9-1,8.8-1.5c5.1-0.8,8-3.8,8.5-8.8c0.6-5.7,1.2-11.5,1.8-17.2c0.5-4.5,3.5-7.6,8.1-8.2c2.7-0.3,5.4-0.5,8-0.5
		c4.9,0,8.3,2.7,9.4,7.5c1.3,5.7,2.4,11.5,3.7,17.2c1,4.6,4.1,7.2,8.8,7.4c3.4,0.2,6.7,0.4,10.1,0.5c4.4,0.2,7.8-2.2,9.2-6.5
		c1.8-5.5,3.6-10.9,5.4-16.4c1.7-4.9,5.4-7.3,10.5-6.7c2.5,0.3,4.9,0.7,7.3,1.2c4.6,1,7.5,4.6,7.6,9.4c0,3,0,6,0,8.9
		C366.2,28.8,366.2,28.8,366.1,28.8z M385.7,304.3c0.1-43.5-35.4-79-79.1-79.1c-43.7-0.1-79.3,35.2-79.4,78.8
		c-0.1,43.8,35.3,79.3,79.2,79.3C350.1,383.3,385.6,347.9,385.7,304.3z M358.7,94.6c-2.6,0.4-4.5,0.5-6.4,0.9
		c-9.8,2.5-16.1,11.1-16.2,22.7c-0.2,20.4-0.1,40.8,0,61.2c0,5.5,3.1,9.9,8.2,11.7c15.4,5.3,29.3,13.3,41.6,24
		c4.1,3.5,9.2,4,13.9,1.3c18-10.3,36-20.6,54-31.1c13.2-7.7,16.4-24.3,4.1-35.9c-25.2-23.9-54.2-41.4-87.5-51.7
		C366.3,96.3,362.2,95.4,358.7,94.6z M336.1,459.9c0,9.3,0,18.7,0,28c0,2.1,0.1,4.2,0.4,6.2c1.6,13.6,13.7,22.1,26.9,18.6
		c36.8-9.9,68.6-28.4,95.8-55.1c3.5-3.4,5.8-7.6,6.3-12.5c0.9-10.3-4-17.5-12.6-22.5c-17.4-10.1-34.9-20.1-52.4-30.2
		c-5.4-3.1-10.4-2.6-15.1,1.4c-11.9,10.3-25.2,18-40,23.1c-6.3,2.2-9.2,6.3-9.2,13.1C336.1,440,336.1,450,336.1,459.9z M276.8,148.5
		c0-10.2,0.1-20.5,0-30.7c-0.2-16-12.9-26.1-27.7-22.1c-36.5,10-68.2,28.4-95.2,54.9c-4,3.9-6.4,8.6-6.5,14.3
		c-0.2,9.6,4.6,16.2,12.6,20.8c17.5,10.2,35.1,20.2,52.6,30.3c5.4,3.1,10.3,2.6,15.1-1.5c11.9-10.3,25.4-18,40.3-23.2
		c6-2.1,8.9-6.3,8.9-12.6C276.8,168.6,276.8,158.6,276.8,148.5z M276.8,460.2c0-10,0-20.1,0-30.1c0-6.9-2.9-10.9-9.4-13.2
		c-14.5-5-27.6-12.6-39.3-22.6c-5.4-4.6-10-5-16.1-1.5c-17.1,9.8-34.1,19.6-51.1,29.4c-1.7,1-3.4,2.1-5,3.3
		c-10.8,8.7-11.6,22.9-1.8,32.6c26.8,26.3,58.3,44.5,94.5,54.4c3.7,1,8,1.1,11.7,0.3c9.9-2.1,16.3-11.2,16.4-22.5
		C276.9,480.3,276.8,470.3,276.8,460.2z M523.3,306.1c0.1-20.5-2.3-38.9-7.2-57.1c-2.2-8.3-7.6-13.6-16.1-15.4
		c-6.2-1.3-12,0.2-17.5,3.4c-17.3,10-34.6,19.9-51.9,29.9c-6.2,3.6-8,7.9-6.7,15c2.8,14.9,2.8,29.8,0,44.7
		c-1.3,6.8,0.6,11.3,6.6,14.8c10.5,6,21,12.1,31.5,18.1c7.3,4.2,14.5,8.6,22,12.6c14,7.5,28.7,1.1,32.5-14
		C521,340.5,523.4,322.6,523.3,306.1z M89.5,304c0.1,18.7,2.3,37.1,7.1,55.1c2.1,8,7.1,13.4,15.3,15.4c6.6,1.6,12.8,0.1,18.6-3.3
		c17.3-10,34.6-19.9,51.9-29.9c5.7-3.3,7.8-7.8,6.6-14.3c-3-15.3-2.9-30.6,0-45.9c1.2-6.5-1-10.9-6.7-14.2
		c-14.9-8.6-29.8-17.1-44.7-25.7c-3.4-1.9-6.7-4-10.1-5.6c-13.7-6.4-27.4,0.1-31.2,14.7C91.8,267.9,89.6,285.8,89.5,304z"/>
</g>
</svg>
